<svg id="Layer_1" height="512" viewBox="0 0 512 512" width="512" xmlns="http://www.w3.org/2000/svg" data-name="Layer 1"><path d="m182.337 229.61a6 6 0 0 0 12 0c0-4.8 1.814-6.917 4.559-10.126 3.315-3.875 7.441-8.7 7.441-17.927s-4.126-14.052-7.441-17.927c-2.745-3.209-4.559-5.329-4.559-10.126s1.813-6.915 4.559-10.123c3.315-3.875 7.441-8.7 7.441-17.926s-4.126-14.049-7.441-17.924c-2.746-3.208-4.559-5.328-4.559-10.123s1.813-6.915 4.559-10.123c3.315-3.875 7.441-8.7 7.441-17.925a6 6 0 0 0 -12 0c0 4.8-1.814 6.915-4.559 10.123-3.315 3.875-7.441 8.7-7.441 17.925s4.126 14.05 7.441 17.925c2.745 3.208 4.559 5.327 4.559 10.122s-1.814 6.915-4.559 10.124c-3.315 3.874-7.441 8.7-7.441 17.925s4.126 14.052 7.441 17.927c2.745 3.209 4.559 5.329 4.559 10.126s-1.814 6.917-4.559 10.126c-3.315 3.875-7.441 8.697-7.441 17.927z"/><path d="m250.287 229.61a6 6 0 0 0 12 0c0-5.31 1.857-7.609 4.668-11.09 3.267-4.045 7.332-9.079 7.332-18.629s-4.065-14.584-7.332-18.629c-2.811-3.481-4.668-5.78-4.668-11.089s1.857-7.607 4.668-11.087c3.267-4.044 7.332-9.078 7.332-18.627a6 6 0 0 0 -12 0c0 5.308-1.857 7.607-4.668 11.087-3.266 4.045-7.332 9.078-7.332 18.627s4.066 14.584 7.332 18.629c2.811 3.48 4.668 5.78 4.668 11.089s-1.857 7.609-4.668 11.09c-3.266 4.045-7.332 9.079-7.332 18.629z"/><path d="m114.387 229.61a6 6 0 0 0 12 0c0-5.31 1.857-7.609 4.668-11.09 3.266-4.045 7.332-9.079 7.332-18.629s-4.066-14.584-7.332-18.629c-2.811-3.481-4.668-5.78-4.668-11.089s1.857-7.607 4.667-11.087c3.267-4.044 7.333-9.078 7.333-18.627a6 6 0 0 0 -12 0c0 5.308-1.857 7.607-4.668 11.087-3.267 4.045-7.332 9.078-7.332 18.627s4.065 14.584 7.332 18.629c2.811 3.48 4.668 5.78 4.668 11.089s-1.857 7.609-4.668 11.09c-3.267 4.045-7.332 9.079-7.332 18.629z"/><path d="m434.2 121.93a156.975 156.975 0 0 1 .974 17.442q0 6.87-.584 13.564a17.085 17.085 0 0 0 -.39-31.006z"/><path d="m320.835 268.769h-253a125.732 125.732 0 0 0 36.9 83.6 128 128 0 0 0 14.669 12.6 5.963 5.963 0 0 0 -.79 1.418l-40.2 103.636a15.323 15.323 0 1 0 28.586 11.077l10.964-28.269h152.75l10.964 28.269a15.323 15.323 0 1 0 28.572-11.081l-40.195-103.632a5.969 5.969 0 0 0 -.872-1.532 126.585 126.585 0 0 0 51.652-96.086zm-208.315 49.487a6 6 0 0 1 -8.19-2.219 127.26 127.26 0 0 1 -6.52-13.047 6 6 0 1 1 11.025-4.739 115.36 115.36 0 0 0 5.9 11.815 6 6 0 0 1 -2.215 8.19zm4.089 15.506a6 6 0 0 1 9.249-7.646 115.264 115.264 0 0 0 36.69 29.407 6 6 0 1 1 -5.451 10.691 127.2 127.2 0 0 1 -40.488-32.452zm13.762 87.073 15.834-40.824a127.3 127.3 0 0 0 96.228-.092l15.87 40.916z"/><path d="m332.432 21.113v237.061c50.559-3.826 90.741-55.649 90.741-118.8 0-31.737-10.227-61.608-28.8-84.109-16.852-20.424-38.659-32.394-61.941-34.152z"/></svg>