<?xml version="1.0" encoding="iso-8859-1"?>
<!-- Generator: Adobe Illustrator 19.0.0, SVG Export Plug-In . SVG Version: 6.00 Build 0)  -->
<svg version="1.1" id="Capa_1" xmlns="http://www.w3.org/2000/svg" xmlns:xlink="http://www.w3.org/1999/xlink" x="0px" y="0px"
	 viewBox="0 0 411.84 411.84" style="enable-background:new 0 0 411.84 411.84;" xml:space="preserve">
<g>
	<g>
		<path d="M210.897,168.827c-0.422-2.576-2.441-4.595-5.017-5.017H141.6c-3.314,0.543-5.56,3.669-5.017,6.983
			c0.422,2.576,2.441,4.595,5.017,5.017h64.28C209.194,175.267,211.44,172.141,210.897,168.827z"/>
	</g>
</g>
<g>
	<g>
		<path d="M374.24,136.17c-3-1.56-6.04-3.16-8.68-4.64l-32-17.88v-3.32c0-17.673-14.327-32-32-32h-31.68l-60.96-33.96
			c-1.85-1.041-4.11-1.041-5.96,0l-61.08,34h-31.6c-17.673,0-32,14.327-32,32v3.32l-32,17.88c-2.64,1.48-5.68,3.04-8.68,4.64
			C18.12,146.45,0,155.97,0,180.01v139.04c0.088,27.136,22.064,49.112,49.2,49.2h313.44c27.136-0.088,49.112-22.064,49.2-49.2
			V179.93C411.84,155.89,393.88,146.41,374.24,136.17z M359.64,141.93c3.2,1.8,6.08,3.28,8.92,4.8
			c14.997,7.999,28.995,15.238,30.879,29.712L333.28,215.48v-87.95L359.64,141.93z M205.88,56.57l39.16,21.76h-78.32L205.88,56.57z
			 M90.52,110.33c0.108-10.89,8.91-19.692,19.8-19.8h191.16c10.89,0.108,19.692,8.91,19.8,19.8v112.231l-33.64,19.849l-46.92-27.64
			h29.48c3.314-0.543,5.56-3.669,5.017-6.983c-0.422-2.576-2.441-4.595-5.017-5.017h-50.156l-11.004-6.48
			c-1.921-1.149-4.319-1.149-6.24,0l-11.072,6.52H141.6c-3.314,0.543-5.56,3.669-5.017,6.983c0.422,2.576,2.441,4.595,5.017,5.017
			h29.48l-47,27.64l-33.56-19.8V110.33z M12.32,176.57c1.84-14.48,16-21.84,30.88-29.72c2.84-1.48,5.68-3,8.92-4.8l26.2-14.6v88
			l1,0.6L9.08,174.73L12.32,176.57z M12.12,190.57l100,58.92l-100,59.08V190.57z M388.76,345.21v-0.04
			c-6.926,6.961-16.34,10.877-26.16,10.88H49.16c-19.123-0.079-35.071-14.643-36.88-33.68l114.8-67.64l78.8-46.4l78.64,46.36
			l114.8,67.64C398.586,330.958,394.849,339.054,388.76,345.21z M399.64,308.37l-100-58.92l100-58.92V308.37z"/>
	</g>
</g>
<g>
	<g>
		<path d="M275.177,130.027c-0.422-2.576-2.441-4.595-5.017-5.017H141.6c-3.314,0.543-5.56,3.669-5.017,6.983
			c0.422,2.576,2.441,4.595,5.017,5.017h128.56C273.474,136.467,275.72,133.341,275.177,130.027z"/>
	</g>
</g>
<g>
</g>
<g>
</g>
<g>
</g>
<g>
</g>
<g>
</g>
<g>
</g>
<g>
</g>
<g>
</g>
<g>
</g>
<g>
</g>
<g>
</g>
<g>
</g>
<g>
</g>
<g>
</g>
<g>
</g>
</svg>
